<svg xmlns:rdf="http://www.w3.org/1999/02/22-rdf-syntax-ns#" xmlns="http://www.w3.org/2000/svg" xmlns:cc="http://creativecommons.org/ns#" xmlns:dc="http://purl.org/dc/elements/1.1/" version="1.1" viewBox="0 0 100 100" x="0px" y="0px"><path style="baseline-shift:baseline;block-progression:tb;color:#000000;direction:ltr;text-indent:0;enable-background:accumulate;text-transform:none;" fill="#000" d="M29.125,14.875c-2.477,0-4.482,0.141-5.969,0.437-1.486,0.298-2.741,0.808-3.781,1.5-1.362,0.868-2.318,2.076-2.875,3.626-0.557,1.548-0.844,4.208-0.844,8v9.062c0,3.79-0.669,6.445-2.031,7.969-1.362,1.523-3.712,2.281-7.0312,2.281-0.1736,0-0.441-0.006-0.8126-0.031-0.3714-0.025-0.6768-0.031-0.875-0.031v4.718c0.1982,0,0.5036-0.006,0.875-0.031,0.3716-0.025,0.639-0.061,0.8126-0.063,3.3192,0.002,5.6692,0.771,7.0312,2.282s2.031,4.141,2.031,7.906v9.062c0,3.692,0.287,6.353,0.844,7.938s1.513,2.796,2.875,3.688c1.04,0.692,2.315,1.202,3.813,1.5,1.498,0.296,3.484,0.437,5.937,0.437h1.281v-4.625h-1.406c-3.122,0-5.266-0.598-6.344-1.75-1.077-1.152-1.625-3.559-1.625-7.25v-9c0-4.112-0.515-7.028-1.593-8.75s-3-2.944-5.75-3.688c2.75-0.766,4.672-2.028,5.75-3.75,1.078-1.72,1.593-4.636,1.593-8.75v-8.968c0-3.716,0.56-6.18,1.625-7.344s3.097-1.75,6.094-1.75c0.173,0,0.472,0.038,0.844,0.062,0.371,0.026,0.614,0.032,0.812,0.032v-4.719h-1.281zm40.375,0v4.625h1.5c3.096,0,5.16,0.605,6.25,1.781,1.09,1.177,1.625,3.622,1.625,7.313v8.968c0,4.114,0.547,7.03,1.625,8.75,1.078,1.722,3,2.984,5.75,3.75-2.75,0.744-4.672,1.966-5.75,3.688s-1.625,4.638-1.625,8.75v8.906c0,3.741-0.547,6.23-1.625,7.406-1.078,1.178-3.09,1.75-6.062,1.75-0.174,0-0.441-0.006-0.813-0.031s-0.677-0.031-0.875-0.031v4.625h1.531c2.527,0,4.52-0.121,5.969-0.406s2.659-0.761,3.625-1.407c1.338-0.89,2.267-2.114,2.813-3.687,0.544-1.573,0.812-4.271,0.812-8.063v-9c0-3.764,0.719-6.401,2.094-7.937,1.374-1.536,3.718-2.311,7.062-2.313,0.174,0.002,0.472,0.038,0.844,0.063,0.371,0.025,0.645,0.031,0.844,0.031v-4.718c-0.199,0-0.473,0.006-0.844,0.031-0.372,0.025-0.67,0.031-0.844,0.031-3.344,0-5.688-0.778-7.062-2.312-1.375-1.536-2.094-4.173-2.094-7.938v-9.062c0-3.766-0.268-6.44-0.812-8-0.546-1.562-1.475-2.758-2.813-3.626-1.04-0.668-2.333-1.159-3.844-1.468-1.511-0.31-3.46-0.469-5.937-0.469h-1.344zm-41.094,8.063v0.593,6.125,0.594h0.594,5.094v2.906,0.282,18.312,0.281,9.907,0.312,11.094,0.312h0.312,22.969l-0.281,0.282,1.031-0.282h0.281v-0.094l0.782-0.218-0.782-0.219v-0.094h-0.281l-1.031-0.281,0.281,0.281h-22.687v-10.781h7.093l-0.281,0.281,1.031-0.281h0.281v-0.094l0.782-0.218-0.782-0.219v-0.063h-0.281l-1.031-0.312,0.281,0.312h-7.093v-9.625h7.093l-0.281,0.313,1.031-0.313h0.281v-0.062l0.782-0.219-0.782-0.219v-0.093h-0.281l-1.031-0.282,0.281,0.282h-7.093v-18h7.093l-0.281,0.312,1.031-0.312h0.281v-0.063l0.782-0.219-0.782-0.25v-0.062h-0.281l-1.031-0.313,0.281,0.313h-7.093v-2.594h5.124,0.594v-0.594-6.125-0.593h-0.594-10.812-0.594zm1.188,1.218h9.594v4.906h-9.594v-4.906zm14.406,5.375v0.625,6.094,0.594h0.594,5.094v3.5,0.312,3.282,2l-0.282-0.313,0.282,1.063v0.25h0.093l0.219,0.781,0.219-0.781h0.093v-0.25l0.282-1.063-0.282,0.313v-2-3.282h7.063l-0.281,0.282,1.031-0.282h0.281v-0.094l0.782-0.218-0.782-0.219v-0.094h-0.281l-1.031-0.281,0.281,0.281h-7.063v-3.187h5.094,0.594v-0.594-6.094-0.625h-0.594-10.812-0.594zm1.188,1.219h9.624v4.906h-9.624v-4.906zm14.406,6v0.594,6.125,0.593h0.594,5.124v3.157,1.781l-0.281-0.312,0.281,1.031v0.219h0.063l0.219,0.75,0.218-0.75h0.063v-0.219l0.313-1.031-0.313,0.312v-1.781-3.157h5.125,0.594v-0.593-6.125-0.594h-0.594-10.812-0.594zm1.218,1.188h9.594v4.906h-9.594v-4.906zm-16.812,10.124v0.594,6.094,0.594h0.594,10.812,0.594v-0.594-2.719h9.312v7.094l-0.312-0.281,0.312,1.031v0.281h0.063l0.219,0.782,0.218-0.782h0.094v-0.281l0.282-1.031-0.282,0.281v-7.375-0.312h-0.312-9.594v-2.782-0.594h-0.594-10.812-0.594zm1.188,1.188h9.624v4.906h-9.624v-4.906zm-1.188,9v0.594,6.094,0.593h0.594,10.812,0.594v-0.593-2.688h9.312v5.281l-0.312-0.312,0.312,1.062v0.25h0.063l0.219,0.813,0.218-0.813h0.094v-0.25l0.282-1.062-0.282,0.312v-5.593-0.282h-0.312-9.594v-2.812-0.594h-0.594-10.812-0.594zm1.188,1.188h9.624v4.906h-9.624v-4.906zm14.406,10.312v0.594,6.125,0.593h0.594,10.812,0.594v-0.593-6.125-0.594h-0.594-10.812-0.594zm1.218,1.188h9.594v4.906h-9.594v-4.906z"></path></svg>