<svg xmlns="http://www.w3.org/2000/svg" xmlns:xlink="http://www.w3.org/1999/xlink" version="1.1" x="0px" y="0px" viewBox="0 0 100 100" enable-background="new 0 0 100 100" xml:space="preserve"><polygon points="96.597,32.12 81.045,23.126 65.48,32.098 65.48,32.121 50.072,41.002 50.072,40.979 34.527,49.94 18.973,58.906   18.963,58.9 18.976,40.946 18.98,40.943 32.672,48.861 48.221,39.898 34.541,31.986 34.54,31.975 18.988,22.981 3.423,31.953   3.411,49.918 3.416,49.921 3.403,67.881 18.956,76.873 34.52,67.902 34.52,67.879 49.928,58.998 49.928,59.02 65.473,50.06   81.027,41.094 81.037,41.1 81.024,59.053 81.02,59.057 67.328,51.139 51.778,60.102 65.461,68.014 65.461,68.025 81.013,77.02   96.577,68.047 96.589,50.082 96.585,50.079 "></polygon></svg>